<svg width="36" height="36" viewBox="0 0 36 36" fill="none" xmlns="http://www.w3.org/2000/svg">
<g clip-path="url(#clip0_1_51)">
<rect width="36" height="36" fill="#CEAC5C"/>
<path d="M22.0487 9.20758C22.5754 8.79064 22.6642 8.02572 22.2473 7.4991C21.8304 6.97246 21.0655 6.88352 20.5389 7.30045L22.0487 9.20758ZM17.2616 9.89505C16.7349 10.312 16.6461 11.0769 17.063 11.6035C17.4799 12.1302 18.2448 12.2191 18.7714 11.8022L17.2616 9.89505ZM17.2616 11.8022C17.7882 12.2191 18.5531 12.1302 18.97 11.6035C19.3869 11.0769 19.2981 10.312 18.7714 9.89505L17.2616 11.8022ZM15.4941 7.30045C14.9675 6.88352 14.2026 6.97246 13.7856 7.4991C13.3687 8.02572 13.4577 8.79064 13.9843 9.20758L15.4941 7.30045ZM16.8003 10.8486C16.8003 11.5203 17.3448 12.0648 18.0165 12.0648C18.6882 12.0648 19.2327 11.5203 19.2327 10.8486H16.8003ZM19.2327 5.01077C19.2327 4.33908 18.6882 3.79456 18.0165 3.79456C17.3448 3.79456 16.8003 4.33908 16.8003 5.01077H19.2327ZM19.2327 10.8486C19.2327 10.1769 18.6882 9.63239 18.0165 9.63239C17.3448 9.63239 16.8003 10.1769 16.8003 10.8486H19.2327ZM16.8003 25.1189C16.8003 25.7906 17.3448 26.3351 18.0165 26.3351C18.6882 26.3351 19.2327 25.7906 19.2327 25.1189H16.8003ZM13.9843 26.76C13.4577 27.1769 13.3687 27.9418 13.7856 28.4683C14.2026 28.995 14.9675 29.0839 15.4941 28.667L13.9843 26.76ZM18.7714 26.0724C19.2981 25.6555 19.3869 24.8906 18.97 24.364C18.5531 23.8373 17.7882 23.7484 17.2616 24.1654L18.7714 26.0724ZM18.7714 24.1654C18.2448 23.7484 17.4799 23.8373 17.063 24.364C16.6461 24.8906 16.7349 25.6555 17.2616 26.0724L18.7714 24.1654ZM20.5389 28.667C21.0655 29.0839 21.8304 28.995 22.2473 28.4683C22.6642 27.9418 22.5754 27.1769 22.0487 26.76L20.5389 28.667ZM19.2327 25.1189C19.2327 24.4472 18.6882 23.9027 18.0165 23.9027C17.3448 23.9027 16.8003 24.4472 16.8003 25.1189H19.2327ZM16.8003 30.9567C16.8003 31.6284 17.3448 32.1729 18.0165 32.1729C18.6882 32.1729 19.2327 31.6284 19.2327 30.9567H16.8003ZM8.30383 18.9056C7.67735 18.6634 6.97308 18.9749 6.73081 19.6013C6.48853 20.2277 6.79999 20.932 7.42647 21.1743L8.30383 18.9056ZM11.3346 22.6856C11.9611 22.9279 12.6653 22.6164 12.9076 21.99C13.1499 21.3635 12.8384 20.6593 12.2119 20.417L11.3346 22.6856ZM12.9753 21.7365C13.0776 21.0726 12.6223 20.4515 11.9584 20.3492C11.2945 20.247 10.6735 20.7022 10.5712 21.3661L12.9753 21.7365ZM9.93878 25.4721C9.83653 26.136 10.2918 26.757 10.9557 26.8594C11.6195 26.9615 12.2406 26.5063 12.3429 25.8424L9.93878 25.4721ZM12.3767 22.6073C12.9599 22.2741 13.1625 21.531 12.8292 20.9479C12.496 20.3648 11.753 20.1621 11.1699 20.4953L12.3767 22.6073ZM6.06175 23.4142C5.47855 23.7475 5.27593 24.4905 5.60919 25.0736C5.94244 25.6568 6.68537 25.8595 7.26856 25.5262L6.06175 23.4142ZM11.1699 20.4953C10.5867 20.8286 10.384 21.5716 10.7173 22.1547C11.0506 22.7379 11.7935 22.9406 12.3767 22.6073L11.1699 20.4953ZM24.8631 15.4722C25.4463 15.1389 25.649 14.396 25.3157 13.8128C24.9825 13.2296 24.2395 13.0269 23.6563 13.3602L24.8631 15.4722ZM27.7292 17.0619C28.3556 17.3041 29.0599 16.9926 29.3022 16.3662C29.5444 15.7397 29.2329 15.0355 28.6065 14.7932L27.7292 17.0619ZM24.6984 13.2818C24.072 13.0395 23.3677 13.351 23.1254 13.9775C22.8832 14.604 23.1947 15.3082 23.8211 15.5505L24.6984 13.2818ZM23.0576 14.231C22.9555 14.8949 23.4107 15.516 24.0746 15.6183C24.7384 15.7204 25.3595 15.2653 25.4619 14.6013L23.0576 14.231ZM26.0943 10.4954C26.1964 9.83151 25.7413 9.21045 25.0774 9.10819C24.4135 9.00593 23.7924 9.46121 23.6901 10.1251L26.0943 10.4954ZM23.6563 13.3602C23.0732 13.6935 22.8705 14.4364 23.2037 15.0196C23.537 15.6027 24.28 15.8054 24.8631 15.4722L23.6563 13.3602ZM29.9713 12.5532C30.5544 12.22 30.7571 11.477 30.4239 10.8939C30.0906 10.3107 29.3476 10.108 28.7644 10.4413L29.9713 12.5532ZM7.42647 14.7932C6.79999 15.0355 6.48853 15.7397 6.73081 16.3662C6.97308 16.9926 7.67735 17.3041 8.30383 17.0619L7.42647 14.7932ZM12.2119 15.5505C12.8384 15.3082 13.1499 14.604 12.9076 13.9775C12.6653 13.351 11.9611 13.0395 11.3346 13.2818L12.2119 15.5505ZM10.5712 14.6013C10.6735 15.2653 11.2945 15.7204 11.9584 15.6183C12.6223 15.516 13.0776 14.8949 12.9753 14.231L10.5712 14.6013ZM12.3429 10.1251C12.2406 9.46121 11.6195 9.00593 10.9557 9.10819C10.2918 9.21045 9.83653 9.83151 9.93878 10.4954L12.3429 10.1251ZM11.1699 15.4722C11.753 15.8054 12.496 15.6027 12.8292 15.0196C13.1625 14.4364 12.9599 13.6935 12.3767 13.3602L11.1699 15.4722ZM7.26856 10.4413C6.68537 10.108 5.94244 10.3107 5.60919 10.8939C5.27593 11.477 5.47855 12.22 6.06175 12.5532L7.26856 10.4413ZM12.3767 13.3602C11.7935 13.0269 11.0506 13.2296 10.7173 13.8128C10.384 14.396 10.5867 15.1389 11.1699 15.4722L12.3767 13.3602ZM23.6563 22.6073C24.2395 22.9406 24.9825 22.7379 25.3157 22.1547C25.649 21.5716 25.4463 20.8286 24.8631 20.4953L23.6563 22.6073ZM28.6065 21.1743C29.2329 20.932 29.5444 20.2277 29.3022 19.6013C29.0599 18.9749 28.3556 18.6634 27.7292 18.9056L28.6065 21.1743ZM23.8211 20.417C23.1947 20.6593 22.8832 21.3635 23.1254 21.99C23.3677 22.6164 24.072 22.9279 24.6984 22.6856L23.8211 20.417ZM25.4619 21.3661C25.3595 20.7022 24.7384 20.247 24.0746 20.3492C23.4107 20.4515 22.9555 21.0726 23.0576 21.7365L25.4619 21.3661ZM23.6901 25.8424C23.7924 26.5063 24.4135 26.9615 25.0774 26.8594C25.7413 26.757 26.1964 26.136 26.0943 25.4721L23.6901 25.8424ZM24.8631 20.4953C24.28 20.1621 23.537 20.3648 23.2037 20.9479C22.8705 21.531 23.0732 22.2741 23.6563 22.6073L24.8631 20.4953ZM28.7644 25.5262C29.3476 25.8595 30.0906 25.6568 30.4239 25.0736C30.7571 24.4905 30.5544 23.7475 29.9713 23.4142L28.7644 25.5262ZM20.5389 7.30045L17.2616 9.89505L18.7714 11.8022L22.0487 9.20758L20.5389 7.30045ZM18.7714 9.89505L15.4941 7.30045L13.9843 9.20758L17.2616 11.8022L18.7714 9.89505ZM19.2327 10.8486V5.01077H16.8003V10.8486H19.2327ZM16.8003 10.8486V25.1189H19.2327V10.8486H16.8003ZM15.4941 28.667L18.7714 26.0724L17.2616 24.1654L13.9843 26.76L15.4941 28.667ZM17.2616 26.0724L20.5389 28.667L22.0487 26.76L18.7714 24.1654L17.2616 26.0724ZM16.8003 25.1189V30.9567H19.2327V25.1189H16.8003ZM7.42647 21.1743L11.3346 22.6856L12.2119 20.417L8.30383 18.9056L7.42647 21.1743ZM10.5712 21.3661L9.93878 25.4721L12.3429 25.8424L12.9753 21.7365L10.5712 21.3661ZM11.1699 20.4953L6.06175 23.4142L7.26856 25.5262L12.3767 22.6073L11.1699 20.4953ZM12.3767 22.6073L24.8631 15.4722L23.6563 13.3602L11.1699 20.4953L12.3767 22.6073ZM28.6065 14.7932L24.6984 13.2818L23.8211 15.5505L27.7292 17.0619L28.6065 14.7932ZM25.4619 14.6013L26.0943 10.4954L23.6901 10.1251L23.0576 14.231L25.4619 14.6013ZM24.8631 15.4722L29.9713 12.5532L28.7644 10.4413L23.6563 13.3602L24.8631 15.4722ZM8.30383 17.0619L12.2119 15.5505L11.3346 13.2818L7.42647 14.7932L8.30383 17.0619ZM12.9753 14.231L12.3429 10.1251L9.93878 10.4954L10.5712 14.6013L12.9753 14.231ZM12.3767 13.3602L7.26856 10.4413L6.06175 12.5532L11.1699 15.4722L12.3767 13.3602ZM11.1699 15.4722L23.6563 22.6073L24.8631 20.4953L12.3767 13.3602L11.1699 15.4722ZM27.7292 18.9056L23.8211 20.417L24.6984 22.6856L28.6065 21.1743L27.7292 18.9056ZM23.0576 21.7365L23.6901 25.8424L26.0943 25.4721L25.4619 21.3661L23.0576 21.7365ZM23.6563 22.6073L28.7644 25.5262L29.9713 23.4142L24.8631 20.4953L23.6563 22.6073Z" fill="#E6DCB1"/>
</g>
<defs>
<clipPath id="clip0_1_51">
<rect width="36" height="36" rx="8" fill="white"/>
</clipPath>
</defs>
</svg>
